<?xml version="1.0" standalone="no"?>
<!DOCTYPE svg PUBLIC "-//W3C//DTD SVG 20010904//EN"
 "http://www.w3.org/TR/2001/REC-SVG-20010904/DTD/svg10.dtd">
<svg version="1.0" xmlns="http://www.w3.org/2000/svg"
 width="2816.000000pt" height="1536.000000pt" viewBox="0 0 2816.000000 1536.000000"
 preserveAspectRatio="xMidYMid meet">
<metadata>
Created by potrace 1.16, written by Peter Selinger 2001-2019
</metadata>
<g transform="translate(0.000000,1536.000000) scale(0.100000,-0.100000)"
fill="#000000" stroke="none">
<path d="M13300 12655 l0 -685 -2371 0 c-1524 0 -2377 3 -2389 10 -10 5 -29
29 -43 53 -102 173 -323 218 -497 99 -112 -76 -161 -248 -111 -383 47 -126
167 -209 298 -209 40 0 76 -5 85 -12 13 -11 119 -187 279 -463 12 -22 86 -146
164 -275 167 -277 306 -511 330 -559 9 -19 51 -86 92 -150 42 -63 77 -121 80
-128 3 -6 -10 -43 -29 -80 -30 -61 -33 -77 -33 -153 0 -76 3 -93 33 -152 58
-119 170 -188 305 -188 l78 0 25 -42 c14 -24 80 -135 146 -248 66 -113 144
-243 173 -290 29 -47 68 -111 85 -144 61 -108 102 -115 335 -61 185 44 431 95
458 95 14 0 -11 -32 -94 -118 -63 -64 -152 -160 -199 -212 -47 -52 -137 -149
-200 -216 -145 -153 -476 -515 -524 -572 -47 -58 -50 -110 -7 -152 42 -42 70
-46 185 -21 55 11 163 32 238 46 76 14 238 47 360 74 123 28 311 68 418 90
107 22 237 50 289 61 52 11 96 20 99 20 4 0 -150 -167 -304 -330 -252 -267
-718 -773 -737 -800 -33 -47 -14 -145 32 -170 11 -5 35 -10 53 -10 35 0 419
77 833 167 138 30 324 69 415 88 91 19 193 40 228 48 34 9 62 11 62 6 0 -5 -4
-9 -9 -9 -4 0 -91 -89 -192 -198 -101 -109 -330 -354 -509 -545 -179 -192
-335 -365 -347 -385 -34 -55 -30 -97 11 -138 51 -51 57 -51 576 61 260 57 370
77 384 72 7 -3 40 -52 73 -109 32 -57 95 -161 139 -233 44 -71 94 -155 112
-186 l32 -56 -36 -66 c-77 -145 -59 -284 51 -399 64 -68 122 -91 231 -96 l91
-4 33 -56 c18 -32 52 -88 75 -127 23 -38 82 -137 130 -220 48 -82 107 -181
131 -220 58 -95 131 -219 329 -555 92 -157 190 -323 218 -370 27 -47 64 -110
82 -140 18 -30 63 -107 100 -170 72 -123 241 -412 259 -445 46 -82 103 -158
127 -170 92 -48 144 4 315 315 22 41 66 116 96 165 50 82 138 232 241 410 22
39 59 102 82 140 23 39 109 183 190 320 81 138 193 327 248 420 55 94 126 213
158 265 122 203 249 422 249 431 0 5 36 9 80 9 145 0 250 63 316 191 24 46 28
66 29 135 0 77 -3 87 -42 165 l-42 82 34 56 c19 31 39 62 43 69 8 11 19 9 58
-11 149 -75 318 -113 461 -103 268 19 475 161 561 384 33 84 55 215 50 293
l-3 50 85 45 c202 109 282 204 346 409 23 75 27 107 27 191 l-1 102 85 42 c66
32 103 60 167 123 139 139 197 283 198 494 l0 112 85 41 c68 33 101 58 166
124 145 146 196 262 204 462 l5 122 84 41 c149 74 253 197 309 366 25 75 27
89 22 210 -5 158 -24 218 -107 343 -56 86 -175 209 -257 267 -24 17 -43 34
-43 39 0 5 17 38 37 73 l37 63 71 0 c87 0 144 18 210 68 66 49 109 115 125
191 17 80 8 148 -30 228 -16 36 -30 69 -30 74 0 4 37 70 82 146 85 143 595
993 771 1286 l101 167 68 0 c77 0 154 25 216 70 29 20 51 51 77 104 36 72 37
78 33 158 -7 143 -70 242 -187 297 -76 35 -211 37 -284 4 -73 -34 -130 -86
-161 -148 l-28 -55 -2387 2 -2386 3 -3 683 -2 682 -260 0 -260 0 0 -1470 0
-1470 260 0 260 0 0 680 0 680 2373 0 c1304 0 2381 -3 2392 -6 18 -4 75 -94
75 -117 0 -7 -161 -278 -398 -672 -63 -104 -136 -226 -162 -270 -25 -44 -66
-111 -90 -150 -23 -38 -73 -122 -111 -185 -37 -63 -92 -155 -122 -205 l-54
-90 -88 -7 c-148 -11 -239 -70 -306 -198 -20 -38 -24 -60 -24 -135 0 -78 4
-97 27 -145 15 -30 33 -63 40 -72 10 -14 6 -25 -20 -65 -55 -83 -122 -225
-122 -258 0 -29 9 -37 106 -100 240 -157 366 -359 351 -561 -4 -50 -14 -88
-32 -125 -51 -99 -79 -132 -150 -171 -37 -21 -71 -38 -74 -38 -4 0 -24 32 -45
70 -145 269 -400 482 -710 594 -267 97 -481 83 -562 -37 -26 -38 -29 -50 -29
-123 0 -76 3 -87 43 -166 61 -120 177 -250 294 -328 237 -159 554 -270 770
-270 l66 0 7 -40 c8 -45 2 -78 -26 -166 -22 -68 -46 -105 -120 -181 -47 -48
-146 -120 -153 -112 -2 2 -16 29 -31 59 -47 94 -159 242 -246 325 -78 74 -239
185 -356 244 -61 30 -195 78 -257 91 -71 15 -242 15 -297 0 -30 -8 -58 -26
-86 -55 -163 -171 11 -484 401 -719 185 -111 463 -196 642 -196 71 0 74 -4 74
-82 0 -110 -53 -232 -142 -324 -52 -55 -142 -116 -150 -104 -2 3 -21 40 -43
83 -122 238 -344 438 -634 571 -188 87 -341 113 -474 82 -153 -36 -208 -144
-157 -308 28 -91 88 -179 194 -283 223 -220 550 -369 859 -392 104 -7 104 -8
87 -129 -13 -98 -56 -194 -113 -252 -43 -45 -133 -102 -159 -102 -9 0 -41 42
-72 95 -79 132 -161 231 -269 323 -119 101 -131 109 -264 176 -217 108 -385
149 -535 128 -105 -15 -158 -45 -188 -108 -19 -39 -22 -57 -18 -128 5 -103 30
-157 126 -276 114 -141 269 -257 467 -350 183 -85 323 -120 488 -120 l87 0 0
-59 c0 -128 -75 -277 -173 -345 -75 -52 -163 -78 -267 -78 -115 -1 -217 28
-357 103 -176 92 -194 86 -308 -109 l-70 -119 -65 0 c-263 -1 -424 -289 -289
-518 12 -19 18 -43 15 -52 -4 -9 -71 -125 -150 -257 -79 -133 -194 -326 -256
-431 -62 -104 -125 -208 -140 -230 -15 -22 -47 -76 -72 -120 -24 -44 -100
-174 -168 -290 -68 -115 -145 -246 -171 -290 -25 -44 -67 -114 -91 -155 -97
-163 -256 -437 -273 -469 -19 -37 -22 -35 -58 29 -14 25 -48 83 -76 130 -27
47 -84 144 -126 215 -41 72 -92 158 -113 192 -20 34 -71 121 -112 192 -41 72
-78 131 -82 131 -5 0 -8 5 -8 12 0 7 -87 159 -194 338 -106 179 -267 449 -356
600 -90 151 -183 307 -206 347 l-44 72 25 36 c61 91 69 215 19 320 -58 123
-154 187 -287 192 -42 1 -81 4 -86 7 -11 7 -93 146 -257 434 -74 130 -144 246
-155 257 -29 29 -83 25 -309 -25 -107 -23 -241 -52 -298 -65 -56 -12 -104 -19
-106 -16 -4 6 73 89 589 642 250 267 406 439 441 485 21 26 27 46 26 80 -1 95
-53 123 -186 98 -44 -9 -189 -39 -321 -68 -575 -127 -1106 -238 -1112 -233 -6
6 45 64 182 207 113 118 358 379 426 455 25 28 108 118 185 200 159 172 226
251 243 282 30 57 -4 135 -66 153 -33 10 -66 6 -248 -30 -116 -22 -318 -65
-450 -95 -242 -55 -497 -109 -680 -145 -55 -11 -110 -24 -122 -30 -14 -6 -24
-6 -28 0 -3 6 101 124 231 262 131 139 265 282 299 318 33 36 95 101 137 145
200 212 371 403 385 429 19 37 10 86 -23 126 -22 26 -33 30 -75 30 -27 0 -142
-20 -256 -44 -429 -90 -673 -139 -677 -135 -4 5 -154 256 -299 501 -65 108
-117 199 -117 203 0 4 15 37 33 74 29 59 32 74 32 156 0 106 -17 147 -97 231
-70 74 -119 96 -232 102 l-92 5 -69 116 c-38 64 -163 274 -278 466 -116 193
-286 480 -378 638 -93 158 -180 303 -194 321 l-25 34 35 53 c24 37 44 56 63
60 15 4 1088 7 2385 8 l2357 1 0 -680 0 -680 260 0 260 0 2 1450 c1 798 2
1458 2 1468 1 16 -19 17 -261 20 l-263 2 0 -685z m-5047 -669 c97 -41 116
-156 35 -216 -108 -80 -240 -1 -207 123 13 49 23 64 64 89 36 21 65 23 108 4z
m11766 -1 c107 -55 109 -185 3 -237 -38 -18 -49 -19 -83 -9 -22 7 -54 25 -72
41 -27 24 -32 35 -31 73 1 56 29 104 74 128 42 23 72 24 109 4z m-10463 -2151
c44 -21 64 -59 64 -122 0 -45 -4 -53 -40 -86 -48 -43 -80 -52 -130 -37 -99 30
-123 189 -36 242 38 23 97 24 142 3z m9215 -23 c33 -33 39 -45 39 -81 0 -65
-26 -109 -77 -132 -50 -22 -88 -18 -128 14 -77 60 -72 182 9 222 17 9 51 16
75 16 37 0 49 -5 82 -39z m-1196 -1136 c104 -28 270 -108 357 -173 89 -65 208
-187 261 -268 26 -40 47 -74 47 -78 0 -11 -90 -6 -167 10 -216 44 -442 159
-596 303 -53 49 -132 163 -143 206 l-6 25 78 0 c53 0 109 -8 169 -25z m-460
-751 c137 -34 306 -122 418 -218 89 -76 252 -294 234 -313 -10 -9 -153 15
-252 44 -220 63 -445 214 -574 386 -36 47 -51 77 -51 99 l0 31 83 -7 c45 -4
109 -14 142 -22z m-392 -768 c187 -68 326 -160 457 -303 63 -69 157 -209 147
-220 -9 -8 -201 33 -291 63 -117 38 -263 115 -347 182 -127 101 -226 221 -245
297 l-7 28 94 -5 c74 -5 115 -13 192 -42z m-498 -732 c77 -20 259 -111 339
-168 105 -75 243 -232 300 -343 l16 -33 -47 6 c-146 17 -329 74 -453 141 -193
106 -367 280 -396 397 l-7 29 94 -6 c52 -4 121 -14 154 -23z m-3684 -1585 c33
-23 59 -85 52 -124 -21 -114 -167 -150 -230 -56 -82 122 59 264 178 180z
m3250 -15 c52 -50 51 -121 -4 -180 -60 -65 -151 -53 -195 25 -26 46 -28 81 -6
127 36 75 141 90 205 28z"/>
</g>
</svg>
