<?xml version="1.0" standalone="no"?>
<!DOCTYPE svg PUBLIC "-//W3C//DTD SVG 20010904//EN"
 "http://www.w3.org/TR/2001/REC-SVG-20010904/DTD/svg10.dtd">
<svg version="1.0" xmlns="http://www.w3.org/2000/svg"
 width="2208.000000pt" height="1952.000000pt" viewBox="0 0 2208.000000 1952.000000"
 preserveAspectRatio="xMidYMid meet">
<metadata>
Created by potrace 1.16, written by Peter Selinger 2001-2019
</metadata>
<g transform="translate(0.000000,1952.000000) scale(0.100000,-0.100000)"
fill="currentColor" stroke="none">
<path d="M9864 18669 c-3 -6 -6 -362 -5 -792 1 -624 -1 -782 -11 -789 -7 -4
-1353 -8 -2991 -8 -2609 0 -2982 -2 -3007 -15 -76 -39 -92 -121 -42 -216 40
-77 140 -246 176 -299 42 -62 146 -233 146 -242 0 -4 21 -41 48 -82 26 -41 67
-110 91 -153 69 -121 139 -239 201 -338 55 -86 186 -310 238 -405 27 -50 127
-217 246 -408 160 -260 191 -310 266 -437 106 -179 188 -313 220 -360 15 -22
89 -148 165 -280 75 -132 143 -247 150 -255 12 -15 45 -69 160 -265 92 -158
104 -175 138 -195 44 -27 63 -26 287 20 107 23 249 52 315 65 66 14 148 31
183 38 91 20 96 6 26 -74 -30 -35 -85 -94 -122 -130 -37 -36 -116 -121 -177
-189 -186 -208 -226 -252 -299 -330 -75 -78 -189 -206 -291 -324 -33 -39 -75
-86 -93 -105 -90 -95 -161 -179 -176 -208 -26 -52 -21 -107 15 -148 44 -50 92
-60 188 -42 91 18 330 68 461 98 52 11 119 25 148 29 29 5 76 15 105 23 29 9
102 27 162 41 61 14 157 36 215 50 315 74 532 118 540 110 12 -12 -59 -99
-175 -219 -123 -126 -330 -348 -455 -489 -63 -72 -151 -168 -195 -216 -143
-154 -214 -234 -239 -270 -14 -19 -46 -55 -71 -80 -25 -24 -54 -63 -66 -86
-17 -37 -19 -48 -9 -85 13 -48 57 -95 99 -104 24 -5 182 24 303 56 20 5 146
32 280 59 134 28 270 56 303 64 132 32 204 48 280 63 139 27 471 102 547 123
40 11 78 20 85 20 30 0 7 -41 -68 -120 -44 -47 -159 -170 -254 -275 -207 -225
-590 -640 -763 -827 -161 -172 -181 -212 -148 -291 22 -55 57 -70 140 -64 125
10 557 95 923 182 117 28 119 27 208 -135 32 -58 85 -152 118 -210 33 -58 84
-148 112 -200 29 -52 76 -133 105 -180 29 -47 76 -125 104 -175 29 -49 68
-116 89 -147 20 -32 48 -81 63 -110 15 -29 53 -96 84 -148 32 -52 89 -149 127
-215 38 -66 116 -199 173 -295 57 -96 131 -224 165 -285 34 -60 95 -163 135
-229 39 -65 134 -225 210 -355 75 -130 173 -297 217 -371 44 -74 110 -187 148
-250 37 -63 99 -169 138 -235 39 -66 104 -176 145 -245 41 -69 83 -139 92
-156 36 -62 134 -220 157 -251 57 -76 168 -82 233 -13 19 20 96 144 171 276
145 255 207 361 412 709 71 121 151 256 177 300 44 76 125 213 402 680 68 116
175 298 237 405 63 107 132 227 156 265 119 197 415 707 471 810 66 124 112
195 131 202 9 4 30 0 47 -7 90 -37 270 -92 344 -105 112 -20 265 -19 355 1 92
21 236 89 314 148 174 132 255 299 268 554 4 64 8 126 10 137 3 14 28 32 77
55 105 50 165 90 229 151 67 65 104 119 153 220 47 97 65 183 73 341 3 70 9
131 12 136 3 6 44 28 91 50 183 85 303 211 389 409 34 79 49 166 59 346 l7
118 60 34 c33 19 67 38 75 42 27 12 154 111 180 140 66 73 101 125 139 203 61
130 73 178 78 338 l6 143 81 40 c203 99 331 246 397 459 20 63 24 96 23 200
-2 305 -117 513 -412 740 -92 71 -90 62 -33 160 22 36 85 144 142 240 57 96
109 184 115 195 6 11 60 103 119 205 60 102 127 219 150 260 23 41 97 167 165
280 250 420 289 486 302 515 7 17 34 63 60 102 27 40 48 74 48 77 0 2 30 53
66 113 37 59 107 178 157 263 49 85 112 194 141 241 77 129 106 178 147 249
21 36 49 84 64 108 59 93 52 164 -20 214 l-40 27 -2982 1 c-2029 0 -2984 3
-2988 10 -4 6 -7 360 -8 788 -1 427 -6 783 -10 790 -6 9 -75 12 -290 12 -155
0 -288 -4 -295 -8 -10 -7 -12 -353 -10 -1698 l3 -1689 294 -3 c229 -2 296 1
303 10 4 7 7 353 7 768 0 415 0 761 0 768 1 10 567 12 2809 12 1544 0 2833 -3
2865 -7 58 -6 71 -19 43 -42 -8 -6 -31 -44 -51 -84 -21 -40 -52 -94 -70 -122
-18 -27 -56 -90 -85 -140 -29 -49 -77 -130 -107 -180 -30 -49 -91 -153 -137
-230 -166 -283 -290 -491 -327 -550 -40 -64 -79 -132 -198 -345 -42 -74 -94
-162 -115 -195 -43 -65 -102 -167 -203 -345 -36 -63 -85 -144 -108 -180 -24
-36 -71 -115 -106 -175 -34 -61 -75 -129 -91 -153 -54 -78 -108 -195 -108
-232 0 -43 37 -83 147 -157 208 -139 363 -346 395 -523 15 -88 -2 -205 -43
-288 -52 -107 -224 -257 -273 -239 -7 3 -28 36 -47 74 -53 106 -147 241 -229
327 -107 112 -336 273 -470 331 -36 15 -80 34 -99 42 -117 52 -327 88 -456 80
-133 -9 -211 -51 -256 -139 -24 -46 -26 -162 -4 -234 40 -134 209 -359 325
-432 30 -19 73 -50 96 -68 51 -41 301 -165 414 -205 47 -17 121 -37 165 -46
44 -8 100 -19 125 -23 25 -5 81 -10 125 -10 114 -3 129 -8 133 -50 5 -43 -15
-161 -35 -209 -28 -67 -115 -191 -166 -237 -54 -48 -150 -114 -167 -114 -5 0
-32 44 -59 99 -56 111 -79 147 -142 223 -132 157 -234 245 -374 322 -27 16
-57 34 -65 40 -47 39 -281 133 -425 171 -68 18 -275 21 -335 5 -54 -15 -116
-64 -142 -112 -16 -31 -23 -66 -26 -128 -8 -165 63 -294 278 -509 111 -110
308 -229 525 -316 158 -63 271 -88 470 -103 82 -6 91 -9 103 -32 37 -72 -33
-317 -120 -416 -51 -58 -196 -163 -225 -164 -7 0 -37 50 -67 111 -31 61 -68
128 -83 148 -50 69 -109 138 -144 169 -138 122 -218 181 -356 264 -63 37 -116
68 -118 68 -3 0 -28 11 -57 25 -140 65 -310 105 -447 105 -86 0 -104 -3 -147
-26 -57 -30 -109 -77 -131 -118 -18 -35 -20 -164 -3 -227 23 -85 89 -204 155
-282 83 -96 252 -231 361 -287 28 -15 64 -36 80 -47 135 -94 477 -193 665
-193 37 0 54 -5 70 -21 20 -20 21 -29 16 -113 -10 -169 -95 -309 -249 -413
-77 -52 -89 -49 -129 29 -69 136 -221 333 -320 415 -19 15 -36 30 -39 33 -33
37 -233 156 -355 212 -181 83 -221 98 -346 124 -99 21 -141 25 -210 21 -103
-7 -144 -22 -197 -75 -50 -50 -67 -114 -60 -233 8 -144 80 -270 244 -431 130
-126 168 -156 294 -225 255 -140 514 -213 752 -213 64 0 69 -2 80 -26 25 -53
-37 -273 -102 -362 -44 -61 -143 -131 -222 -158 -59 -20 -90 -24 -200 -24
-117 0 -139 3 -217 29 -47 16 -140 56 -206 90 -141 71 -168 78 -217 58 -28
-12 -44 -30 -73 -84 -21 -37 -52 -90 -70 -118 -36 -56 -130 -213 -192 -320
-69 -121 -311 -532 -426 -725 -99 -165 -264 -448 -352 -600 -44 -77 -253 -428
-280 -470 -13 -19 -67 -111 -120 -205 -54 -93 -146 -251 -205 -350 -58 -99
-140 -238 -180 -310 -40 -71 -100 -175 -133 -230 -33 -55 -73 -125 -90 -155
-37 -68 -46 -80 -61 -80 -11 0 -97 135 -147 230 -12 25 -46 83 -74 130 -67
111 -201 338 -305 520 -46 80 -118 201 -161 270 -75 123 -185 309 -309 525
-35 61 -134 229 -220 375 -87 146 -201 342 -255 435 -54 94 -126 215 -160 270
-34 55 -77 127 -95 160 -18 33 -51 89 -73 125 -46 74 -135 229 -180 310 -16
30 -33 60 -37 65 -4 6 -28 46 -52 90 -25 44 -56 100 -70 125 -14 25 -48 86
-75 135 -74 134 -105 189 -113 200 -5 6 -29 52 -55 103 -70 140 -69 140 -374
76 -90 -19 -168 -37 -172 -40 -4 -2 -34 -9 -66 -14 -32 -6 -106 -22 -165 -37
-82 -21 -110 -25 -119 -16 -16 16 -1 38 87 129 131 136 231 244 504 544 52 57
125 136 161 175 36 38 83 90 105 115 53 62 236 260 311 338 73 75 91 117 74
177 -30 111 -88 118 -389 51 -108 -24 -217 -47 -242 -51 -62 -9 -236 -43 -279
-55 -270 -69 -372 -93 -609 -140 -112 -23 -237 -49 -279 -60 -73 -18 -103 -18
-103 2 0 5 30 42 68 83 37 40 110 122 162 180 52 59 124 137 160 173 99 102
212 224 241 260 14 17 76 86 138 152 172 183 189 201 239 260 26 30 81 93 122
141 108 123 119 180 49 250 -48 48 -55 48 -241 9 -187 -40 -320 -68 -388 -82
-30 -6 -77 -17 -105 -24 -27 -7 -70 -16 -95 -20 -24 -3 -51 -10 -60 -15 -8 -5
-55 -15 -105 -23 -49 -9 -153 -29 -230 -46 -77 -17 -165 -35 -195 -40 -48 -8
-134 -29 -344 -84 -55 -15 -76 -14 -76 2 0 7 40 52 149 167 37 39 107 115 156
170 49 55 143 159 210 230 67 72 161 175 209 230 48 55 122 136 164 181 109
113 268 295 314 355 44 60 51 113 18 166 -42 70 -93 67 -580 -34 -464 -96
-494 -102 -530 -113 -78 -23 -103 -10 -152 80 -14 25 -44 74 -66 110 -23 36
-62 101 -88 145 -26 44 -64 105 -83 135 -20 30 -43 68 -51 83 -14 26 -135 228
-365 612 -60 99 -150 248 -200 330 -51 83 -138 229 -195 325 -128 216 -161
272 -260 431 -43 69 -108 179 -145 245 -37 65 -94 165 -126 222 -32 56 -73
126 -92 155 -18 28 -53 86 -77 127 -24 41 -60 102 -80 135 -21 33 -52 87 -70
120 -18 33 -48 84 -67 113 -27 43 -31 57 -22 68 10 12 422 14 2853 14 1562 0
2847 -4 2853 -8 10 -6 13 -177 15 -778 l3 -769 300 0 300 0 3 1675 c1 921 0
1685 -3 1698 l-5 22 -295 0 c-202 0 -296 -3 -301 -11z m4886 -5419 c228 -30
525 -159 650 -283 153 -152 279 -319 266 -353 -6 -16 -82 -18 -136 -4 -281 73
-424 132 -613 252 -117 76 -282 262 -303 342 -14 58 1 63 136 46z m-420 -922
c149 -36 306 -119 507 -270 42 -32 173 -176 173 -191 0 -3 18 -36 40 -73 44
-75 50 -104 23 -104 -21 0 -141 24 -231 46 -189 46 -433 177 -580 311 -91 83
-206 272 -186 305 9 15 149 2 254 -24z m-598 -892 c169 -36 384 -143 527 -262
143 -120 311 -323 311 -376 0 -23 -14 -23 -136 2 -188 38 -454 143 -565 222
-183 129 -326 300 -332 394 -2 33 1 38 23 44 26 6 40 4 172 -24z m-547 -902
c107 -23 215 -58 313 -101 60 -26 206 -132 278 -200 115 -111 244 -282 244
-326 0 -17 -5 -19 -42 -14 -117 15 -281 49 -345 71 -270 93 -512 283 -606 475
-38 76 -44 94 -38 116 3 12 85 3 196 -21z"/>
<path d="M6415 4321 c-85 -22 -151 -77 -197 -163 -49 -93 -21 -242 60 -321 61
-60 122 -82 227 -81 107 0 159 19 231 86 62 57 84 105 84 190 0 128 -47 208
-156 263 -42 22 -71 28 -136 31 -46 2 -96 0 -113 -5z"/>
<path d="M13250 4190 l-235 -5 0 -1260 c0 -693 2 -1266 4 -1272 2 -10 60 -13
246 -13 210 0 244 2 249 16 3 8 6 579 6 1269 0 1181 -1 1255 -18 1262 -9 4
-123 6 -252 3z"/>
<path d="M8275 3480 c-92 -10 -183 -29 -190 -41 -4 -5 -14 -9 -22 -9 -30 0
-150 -80 -211 -141 -33 -32 -65 -59 -71 -59 -12 0 -14 18 -11 134 1 56 -3 82
-12 87 -7 5 -115 9 -240 9 -176 0 -228 -3 -228 -12 -4 -137 2 -1793 6 -1799 3
-5 113 -9 244 -9 219 0 239 1 244 18 2 9 4 235 4 502 0 417 2 495 16 555 21
87 52 141 113 195 95 84 199 119 371 127 l124 6 -7 216 c-4 119 -8 216 -9 217
-8 8 -65 9 -121 4z"/>
<path d="M4950 3471 c-216 -33 -459 -160 -577 -303 -111 -135 -159 -227 -198
-379 -21 -84 -25 -125 -26 -243 -1 -181 25 -296 99 -442 37 -73 132 -195 193
-248 62 -53 202 -138 279 -168 271 -107 628 -96 868 26 132 68 269 194 323
298 l19 37 -22 14 c-73 44 -150 87 -157 87 -5 0 -48 27 -97 60 -49 33 -94 60
-101 60 -7 0 -23 -17 -36 -38 -57 -89 -154 -152 -282 -182 -96 -23 -151 -21
-249 6 -148 42 -264 155 -313 304 -21 64 -25 261 -7 330 19 76 71 176 110 215
118 118 282 165 454 130 115 -23 151 -44 241 -136 42 -44 79 -79 83 -79 4 0
38 20 75 44 37 24 120 71 184 105 64 35 117 69 117 76 0 18 -108 162 -151 201
-104 95 -231 164 -372 201 -73 19 -125 25 -247 28 -85 2 -180 0 -210 -4z"/>
<path d="M9380 3470 c-352 -45 -623 -248 -764 -570 -8 -19 -17 -47 -20 -62 -2
-14 -9 -35 -14 -45 -10 -20 -22 -122 -27 -248 -6 -141 35 -321 94 -419 11 -17
29 -49 41 -71 76 -138 188 -238 380 -339 166 -87 398 -120 645 -91 75 9 232
53 288 82 72 36 227 154 262 198 17 21 39 50 51 64 31 38 46 70 39 82 -7 10
-31 23 -158 87 -31 17 -63 34 -70 40 -6 5 -42 26 -79 46 -66 36 -98 44 -98 27
0 -18 -77 -101 -123 -134 -42 -30 -73 -42 -193 -78 -89 -26 -242 1 -339 60
-84 51 -130 103 -178 201 -41 84 -41 87 -44 205 -4 192 25 285 122 393 60 65
146 113 251 139 91 23 227 7 317 -35 59 -29 145 -101 177 -150 29 -44 53 -38
192 51 29 19 92 56 140 83 48 27 90 54 92 61 3 6 -22 48 -55 92 -133 178 -344
296 -592 330 -85 12 -249 12 -337 1z"/>
<path d="M16815 3454 c-163 -30 -272 -79 -391 -173 -107 -87 -165 -200 -179
-351 -16 -189 53 -347 188 -428 108 -65 351 -133 592 -166 186 -26 253 -54
281 -122 23 -56 18 -99 -17 -139 -55 -63 -139 -85 -323 -86 -193 -1 -295 24
-495 117 -63 30 -119 54 -126 54 -7 0 -24 -35 -38 -77 -14 -43 -43 -120 -66
-171 -23 -51 -41 -97 -41 -103 0 -14 166 -90 255 -117 159 -48 343 -74 524
-74 145 1 175 4 298 33 107 25 191 62 281 122 99 67 132 103 176 189 75 148
80 307 15 445 -27 57 -125 163 -150 163 -5 0 -26 11 -47 24 -60 37 -176 67
-557 141 -140 27 -221 60 -254 101 -23 29 -29 103 -12 147 15 38 73 77 138 92
76 19 291 19 385 1 83 -16 237 -65 287 -90 18 -10 37 -14 41 -9 9 9 73 167
111 276 18 50 21 71 13 84 -14 22 -146 66 -329 110 -91 21 -458 27 -560 7z"/>
<path d="M6260 3443 c-1 -106 1 -1252 3 -1488 l2 -310 245 0 245 0 3 899 c2
713 0 901 -10 908 -7 4 -120 8 -250 8 -220 0 -238 -1 -238 -17z"/>
<path d="M10673 3447 c-9 -15 -2 -1101 7 -1187 13 -109 38 -196 86 -295 66
-137 210 -261 363 -314 179 -62 482 -47 638 32 57 30 167 115 205 160 14 17
29 29 33 26 3 -4 7 -56 8 -115 l2 -109 240 0 240 0 0 900 0 900 -248 5 c-137
3 -253 3 -258 0 -5 -4 -9 -236 -9 -525 -1 -516 -1 -521 -24 -585 -41 -117 -63
-147 -151 -208 -159 -108 -361 -112 -488 -8 -41 32 -62 61 -97 131 l-45 90 -2
549 c-1 301 -3 549 -5 551 -7 7 -490 9 -495 2z"/>
<path d="M15568 3452 l-238 -2 0 -505 c0 -278 0 -507 -1 -510 -25 -143 -71
-230 -158 -295 -94 -71 -155 -92 -272 -93 -91 -1 -100 1 -164 33 -82 42 -127
94 -163 187 l-27 68 -1 555 -1 555 -259 0 -259 0 0 -570 c0 -626 1 -650 27
-748 19 -69 22 -79 51 -132 8 -16 25 -50 36 -74 23 -48 124 -152 192 -198 51
-34 138 -68 229 -90 97 -23 325 -22 415 1 126 33 270 117 342 199 17 20 34 33
37 30 3 -4 6 -55 6 -115 0 -96 2 -108 18 -109 50 -3 448 4 454 8 5 2 8 408 8
902 0 848 -1 899 -17 902 -10 2 -125 3 -255 1z"/>
</g>
</svg>
